# xmcd
#
# Track frame offsets:
#	150
#	17725
#	42017
#	62317
#	81947
#	100552
#	117662
#	139577
#	163795
#	184247
#
# Disc length: 2654 seconds
#
# Revision: 0
# Processed by: cddbd v1.4PL0 Copyright (c) Steve Scherf et al.
# Submitted via: dBpowerAMP V4.0
#
DISCID=7a0a5c0a
DTITLE=Michael James - Signature Songs
DYEAR=1900
DGENRE=Gospel
TTITLE0=Love Will
TTITLE1=Closer to the Fire
TTITLE2=That's What a Brother is For (Duet w/Gary Chapman
TTITLE3=The Harder the Winds Blow
TTITLE4=Slow Down
TTITLE5=In The Midst of Your Love
TTITLE6=One of These Days
TTITLE7=It Wasn't His Child
TTITLE8=The Chisel
TTITLE9=Throne of Grace
EXTD=1. Love Will  3:54\n2. Closer to the Fire  5:22\n3. That's What a Brother is For (Duet w/Gary Chapman)  4:28\n4. The Harder the Winds Blow  4:19\n5. Slow Down  4:07\n6. In The Midst of Your Love  3:46\n7. One of These Days  4:30\n8. It Wasn't His C
EXTD=hild  5:21\n9. The Chisel  4:30\n10. Throne of Grace  3:16 
EXTT0=
EXTT1=
EXTT2=
EXTT3=
EXTT4=
EXTT5=
EXTT6=
EXTT7=
EXTT8=
EXTT9=
PLAYORDER=
